<?xml version="1.0" encoding="UTF-8" standalone="no"?>
<svg
   xmlns:dc="http://purl.org/dc/elements/1.1/"
   xmlns:cc="http://creativecommons.org/ns#"
   xmlns:rdf="http://www.w3.org/1999/02/22-rdf-syntax-ns#"
   xmlns:svg="http://www.w3.org/2000/svg"
   xmlns="http://www.w3.org/2000/svg"
   xmlns:sodipodi="http://sodipodi.sourceforge.net/DTD/sodipodi-0.dtd"
   xmlns:inkscape="http://www.inkscape.org/namespaces/inkscape"
   height="24"
   width="24"
   version="1.1"
   id="svg16"
   sodipodi:docname="5new.svg"
   inkscape:version="0.92.3 (2405546, 2018-03-11)">
  <metadata
     id="metadata22">
    <rdf:RDF>
      <cc:Work
         rdf:about="">
        <dc:format>image/svg+xml</dc:format>
        <dc:type
           rdf:resource="http://purl.org/dc/dcmitype/StillImage" />
        <dc:title></dc:title>
      </cc:Work>
    </rdf:RDF>
  </metadata>
  <defs
     id="defs20" />
  <sodipodi:namedview
     pagecolor="#ffffff"
     bordercolor="#666666"
     borderopacity="1"
     objecttolerance="10"
     gridtolerance="10"
     guidetolerance="10"
     inkscape:pageopacity="0"
     inkscape:pageshadow="2"
     inkscape:window-width="1334"
     inkscape:window-height="758"
     id="namedview18"
     showgrid="false"
     inkscape:zoom="27.916667"
     inkscape:cx="12"
     inkscape:cy="12"
     inkscape:window-x="26"
     inkscape:window-y="26"
     inkscape:window-maximized="1"
     inkscape:current-layer="g14" />
  <g
     transform="translate(0 -1028.4)"
     id="g14">
    <path
       d="m12 0c-4.4183 2.3685e-15 -8 3.5817-8 8 0 1.421 0.3816 2.75 1.0312 3.906 0.1079 0.192 0.221 0.381 0.3438 0.563l6.625 11.531 6.625-11.531c0.102-0.151 0.19-0.311 0.281-0.469l0.063-0.094c0.649-1.156 1.031-2.485 1.031-3.906 0-4.4183-3.582-8-8-8zm0 4c2.209 0 4 1.7909 4 4 0 2.209-1.791 4-4 4-2.2091 0-4-1.791-4-4 0-2.2091 1.7909-4 4-4z"
       transform="translate(0 1028.4)"
       fill="#e74c3c"
       id="path10"
       style="stroke:#100000;stroke-opacity:1;stroke-width:0.5;stroke-miterlimit:4;stroke-dasharray:none;fill:#ffff00;fill-opacity:1" />
    <rect
       style="fill:#ffff00;fill-opacity:1;stroke:none;stroke-width:1.03226638;stroke-linecap:round;stroke-linejoin:round;stroke-opacity:1"
       id="rect90"
       width="9.7074623"
       height="9.3134327"
       x="6.8417912"
       y="1031.8387" />
  </g>
</svg>
